# xmcd
#
# Track frame offsets:
#	150
#	12125
#	22626
#	31429
#	46095
#	55429
#	71095
#	84547
#
# Disc length: 1334 seconds
#
# Revision: 2
# Processed by: cddbd v1.5.2PL0 Copyright (c) Steve Scherf et al.
# Submitted via: audiograbber 1.83.01
#
DISCID=59053408
DTITLE=The Raymen - Long Lonely Highway
DYEAR=1900
DGENRE=Rockabilly
TTITLE0=Long Lonely Highway
TTITLE1=Earth Boy
TTITLE2=Home Is Where The Heart Is
TTITLE3=Blue Moon
TTITLE4=Speedway
TTITLE5=Suspicion
TTITLE6=Golden Coins
TTITLE7=Tender Feeling
EXTD=
EXTT0=
EXTT1=
EXTT2=
EXTT3=
EXTT4=
EXTT5=
EXTT6=
EXTT7=
PLAYORDER=
